<svg xmlns="http://www.w3.org/2000/svg" width="53.3" height="95.625" viewBox="0 0 53.3 95.625">
  <g id="HUJI_Hebrew_University_of_Jerusalem" data-name="HUJI Hebrew University of Jerusalem" transform="translate(-22.919 -50)">
    <path id="Path_3" data-name="Path 3" d="M121.219,117.425l-.9-5.7h-1.1l-1.1,3.3c-.1.4-.2.7-.3,1.1h0l-.3-1.2-1.1-3.3h-1.1l-.9,5.7h1l.4-2.9a7.568,7.568,0,0,0,.1-1.5h0a4.951,4.951,0,0,0,.4,1.3l1,3.1h.9l1.1-3.3c.1-.4.2-.7.3-1.1h0c.1.4.1.8.2,1.4l.4,3Zm-7.7,0v-.8h-2.1v-1.8h2v-.8h-2v-1.6h2.1v-.8h-3v5.7h3Zm-3.7,0v-.8h-2v-4.9h-.9v5.7h2.9Zm-5.3-2h-1.8l.6-1.8.3-.9h0l.3.9Zm1.7,2-2.1-5.7h-1l-.67,1.91-1.33,3.79h.9l.4-1.2h2.3l.4,1.2Zm-5.5-1.7c0-1.8-2.5-1.3-2.5-2.5,0-.5.4-.8,1.1-.8a3.553,3.553,0,0,1,1,.2l.1-.8a3.4,3.4,0,0,0-1-.1c-1.3,0-2.1.7-2.1,1.7,0,1.8,2.5,1.3,2.5,2.5,0,.6-.5.9-1.1.9a5.019,5.019,0,0,1-1.2-.2l-.1.9a4.485,4.485,0,0,0,1.1.1c1.4-.1,2.2-.9,2.2-1.9m-4.5-.5v-3.5h-.9v3.6c0,1.1-.4,1.4-1.4,1.4a1.158,1.158,0,0,1-1.3-1.3v-3.7h-.9v3.8c0,1,.4,2,2.2,2a1.951,1.951,0,0,0,2.3-1.6c0-.3,0-.5,0-.7m-6.6-1.9c0,.6-.4,1-1.2,1h-.4v-1.8h.5c.7,0,1.1.3,1.1.8m1.3,4.2-1.5-2-.5-.6a1.58,1.58,0,0,0,1.6-1.6c0-1.1-.8-1.5-2-1.5h-1.5v5.7h.9v-2.5h0l1.8,2.5Zm-5.1,0v-.8h-2.1v-1.8h2v-.8h-2v-1.6h2.1v-.8h-3v5.7h3Zm-4.4-1.6v-4.2h-.9v4.1c0,.7-.2.9-.7.9a1.268,1.268,0,0,1-.6-.1v.8c.2,0,.4.1.7.1,1.1,0,1.5-.7,1.5-1.6m-4.3-3.4v-.8h-3v5.7h.9v-2.5h1.9v-.8h-1.9v-1.7Zm-4.9,2.1c0,1.4-.8,2.1-1.7,2.1-1.1,0-1.6-.9-1.6-2.2a1.871,1.871,0,0,1,1.7-2.1c1,0,1.6.8,1.6,2.2m1-.1c0-1.9-1-2.9-2.6-2.9a2.689,2.689,0,0,0-2.7,2.7v.3c0,1.8.8,2.9,2.6,2.9a2.689,2.689,0,0,0,2.7-2.7v-.3m37.5-11.124h-1l-.8,1.7a11.723,11.723,0,0,0-.5,1.1h0a6.9,6.9,0,0,0-.4-1l-.9-1.8h-1l1.8,3.7v2h.9v-2Zm-4.7.8v-.8h-4v.8h1.6v4.9h.9v-4.9Zm-4.8-.8h-.9v5.7h.9Zm-2,4c0-1.8-2.5-1.3-2.5-2.5,0-.5.4-.8,1.1-.8a3.553,3.553,0,0,1,1,.2l.1-.8a3.4,3.4,0,0,0-1-.1c-1.3,0-2.1.7-2.1,1.7,0,1.8,2.5,1.3,2.5,2.5,0,.6-.5.9-1.1.9a5.019,5.019,0,0,1-1.2-.2v.9a4.484,4.484,0,0,0,1.1.1c1.3-.1,2.1-.8,2.1-1.9m-5.3-2.3c0,.6-.4,1-1.2,1h-.4v-1.8h.5c.7,0,1.1.2,1.1.8m1.4,4.1-1.5-2-.5-.6a1.58,1.58,0,0,0,1.6-1.6c0-1.1-.8-1.5-2-1.5h-1.5v5.7h.9v-2.5h0l1.8,2.5Zm-5.1,0v-.8h-2.1v-1.7h2v-.8h-2v-1.6h2.1v-.8h-3v5.7h3Zm-3.7-5.6h-1l-1.2,3.4c-.1.4-.3.8-.4,1.2h0a5.638,5.638,0,0,0-.4-1.2l-1.2-3.5h-1l2,5.7h1Zm-5.8,0h-.9v5.7h.9Zm-2.4,5.6v-5.7h-.9v1.7a22.622,22.622,0,0,0,.1,2.7,8.264,8.264,0,0,0-.7-1.3l-1.9-3.1h-1.2v5.7h.9v-1.9a18.521,18.521,0,0,0-.1-2.5l.6,1.2,1.9,3.2h1.3Zm-6-2.2v-3.5h-.9v3.6c0,1.1-.4,1.4-1.3,1.4a1.206,1.206,0,0,1-1.3-1.3v-3.7h-.9v3.8c0,1,.4,2,2.2,2a1.951,1.951,0,0,0,2.3-1.6,1.952,1.952,0,0,1-.1-.7M115.8,94.8h-.9l-.9,3.6c-.1.3-.1.6-.2,1h0c-.1-.3-.1-.7-.2-1l-1-3.5h-1l-1,3.5a4.253,4.253,0,0,0-.2,1.1h0a3.6,3.6,0,0,0-.2-1.1l-.9-3.4h-1l1.5,5.7h1.1l1-3.5a3.553,3.553,0,0,0,.2-1h0c.1.4.1.7.2,1.1l1,3.5h1.1Zm-8.2,5.7v-.8h-2.1V98h2v-.8h-2V95.6h2.1v-.8h-3v5.7h3Zm-5.2-4.1c0,.6-.4,1-1.2,1h-.4V95.6h.5c.7,0,1.1.3,1.1.8m1.3,4.2-1.5-2-.5-.6a1.58,1.58,0,0,0,1.6-1.6c0-1.1-.8-1.5-2-1.5H99.8v5.7h.9V98h0l1.8,2.5Zm-6-1.7c0,.6-.4,1-1.2,1h-.7V98.1h.5c.8,0,1.4.2,1.4.8m-.1-2.4c0,.6-.4.9-1.3.9h-.5v-2h.7c.8,0,1.1.3,1.1.8m1.1,2.5a1.384,1.384,0,0,0-1.1-1.3h0a1.381,1.381,0,0,0,1-1.3c0-.9-.6-1.4-1.9-1.4H94.9v5.7h1.6c1.7,0,2.2-1,2.2-1.7m-5,1.7v-.8H91.6V97.8h2V97h-2V95.4h2.1v-.8h-3v5.7h3Zm-4.5,0V94.7h-.9V97H85.6V94.7h-.9v5.7h.9V97.8h2.7v2.6Zm-7.5,0v-.8H79.6V97.8h2V97h-2V95.4h2.1v-.8h-3v5.7h3Zm-4.5,0V94.7h-.9V97H73.6V94.7h-.9v5.7h.9V97.8h2.7v2.6ZM72,95.5v-.8H68v.8h1.6v4.9h.9V95.5Z" transform="translate(-45 28)"/>
    <path id="Path_4" data-name="Path 4" d="M50.5,97.8l4.1,6.1,2.8-3.5-3.5-7Z" fill="#215969"/>
    <path id="Path_5" data-name="Path 5" d="M31,99.1l-8,9.8v7.2l7.4-7.3Z" fill="#686d4a"/>
    <path id="Path_6" data-name="Path 6" d="M37.9,90.5l.4,10.6L47,92.6l-4.9-7.4Z" fill="#249076"/>
    <path id="Path_7" data-name="Path 7" d="M46.9,79.2l-4.8,6L47,92.6l4.4-4.3Z" fill="#7a000a"/>
    <path id="Path_8" data-name="Path 8" d="M59,86.9l-2-4-5.6,5.4,2.5,5.1Z" fill="#458ea1"/>
    <path id="Path_9" data-name="Path 9" d="M50.5,97.8l3.4-4.4-2.5-5.1L47,92.6Z" fill="#170a0d"/>
    <path id="Path_10" data-name="Path 10" d="M36.6,64.1H33.1L31,99.1l6.9-8.6Z" fill="#5fb279"/>
    <path id="Path_11" data-name="Path 11" d="M31,99.1l-.6,9.7,7.9-7.7-.4-10.6Z" fill="#09362c"/>
    <path id="Path_12" data-name="Path 12" d="M35.9,53l-1.5-3s-3.1,4.8-3.1,6.6a9.578,9.578,0,0,0,1.4,4.9H37l.8-4.6H35Z" fill="#7a000a"/>
  </g>
</svg>
