<svg xmlns="http://www.w3.org/2000/svg" version="1.1" xmlns:xlink="http://www.w3.org/1999/xlink" width="512" height="512" x="0" y="0" viewBox="0 0 512.023 512.023" style="enable-background:new 0 0 512 512" xml:space="preserve" class=""><g><path fill="#00429d" d="M15.01 512.005a14.948 14.948 0 0 1-10.606-4.394c-5.858-5.857-5.858-15.355 0-21.213l27.27-27.27c5.858-5.858 15.355-5.858 21.213 0 5.858 5.857 5.858 15.355 0 21.213l-27.27 27.27a14.958 14.958 0 0 1-10.607 4.394z" opacity="1" data-original="#00429d"></path><path fill="#00347b" d="M4.671 507.854a14.942 14.942 0 0 0 10.338 4.151c3.838 0 7.678-1.465 10.606-4.394l27.27-27.27c5.772-5.771 5.844-15.07.242-20.945z" opacity="1" data-original="#00347b"></path><path fill="#7dd5f4" d="M3.396 405.314a44.758 44.758 0 0 1 9.77-14.636l10.673-10.673 20.277-.659 1.021-20.639 21.106-21.106 15.915-2.17 5.106-18.851 21.617-21.617s25.706-16.209 31.563-10.35l86.974 86.974c5.858 5.857-10.605 31.818-10.605 31.818l-21.277 21.277-18.782 2.154-2.409 19.038-21.064 21.064-16.846.217-4.537 21.166-10.546 10.546a44.779 44.779 0 0 1-13.318 9.203C102.17 510.705-3.315 421.617 3.396 405.314z" opacity="1" data-original="#7dd5f4"></path><path fill="#4793ff" d="M184.179 328.346 49.817 462.708c26.607 24.408 55.241 46.698 58.218 45.36a44.766 44.766 0 0 0 13.318-9.203l10.546-10.546 4.537-21.166 16.846-.217 21.064-21.064 2.409-19.038 18.782-2.154 21.277-21.277s16.463-25.961 10.605-31.818z" opacity="1" data-original="#4793ff"></path><path fill="#4793ff" d="m66.153 337.624 21.21-21.21 108.17 108.17-21.21 21.21zM140.445 284.612c-5.857-5.859-15.354-5.857-21.213 0l-10.603 10.604 108.187 108.187 10.603-10.604c5.858-5.857 5.858-15.355 0-21.213zM4.472 402.931c-7.516 15.599-5.52 34.659 5.99 48.416l50.227 50.227c8.321 6.961 18.58 10.451 28.846 10.451a45.09 45.09 0 0 0 19.566-4.464zM23.728 380.042l21.21-21.21L153.11 467.003l-21.21 21.21z" opacity="1" data-original="#4793ff"></path><path fill="#ca75f5" d="M497.009 345.762c-3.77 0-7.542-1.411-10.457-4.247-33.042-32.138-76.622-49.836-122.714-49.836-37.736 0-75.163 12.444-105.387 35.04-6.634 4.961-16.034 3.604-20.995-3.032-4.96-6.635-3.603-16.034 3.032-20.995 35.375-26.447 79.181-41.013 123.35-41.013 53.948 0 104.957 20.716 143.63 58.33 5.939 5.776 6.07 15.272.295 21.211a14.959 14.959 0 0 1-10.754 4.542z" opacity="1" data-original="#ca75f5"></path><path fill="#fdbf00" d="M183.234 259.667a14.93 14.93 0 0 1-8.882-2.922c-6.671-4.912-8.097-14.302-3.185-20.973 12.167-16.523 18.597-36.104 18.597-56.624 0-40.942-26.05-77.287-64.822-90.438-7.845-2.661-12.048-11.178-9.387-19.023 2.662-7.846 11.178-12.049 19.023-9.387 50.952 17.283 85.186 65.044 85.186 118.849 0 26.966-8.451 52.697-24.44 74.411a14.978 14.978 0 0 1-12.09 6.107z" opacity="1" data-original="#fdbf00"></path><path fill="#ff8856" d="M289.679 184.174a14.95 14.95 0 0 1-10.606-4.394c-5.858-5.857-5.858-15.355 0-21.213 14.296-14.296 33.984-17.852 51.356-20.989 14.306-2.584 27.819-5.024 35.475-12.68 7.654-7.655 10.096-21.168 12.68-35.475 3.137-17.371 6.693-37.061 20.989-51.356 17.602-17.601 40.871-23.291 63.376-28.793 10.234-2.503 19.901-4.867 28.639-8.255 7.726-2.997 16.413.838 19.408 8.563 2.995 7.724-.839 16.413-8.563 19.408-10.56 4.095-21.642 6.805-32.359 9.425-19.347 4.731-37.622 9.199-49.288 20.865-7.655 7.656-10.097 21.169-12.681 35.476-3.137 17.371-6.693 37.06-20.988 51.355-14.296 14.296-33.984 17.852-51.356 20.989-14.306 2.584-27.819 5.024-35.475 12.68a14.958 14.958 0 0 1-10.607 4.394z" opacity="1" data-original="#ff8856" class=""></path><g fill-rule="evenodd" clip-rule="evenodd"><path fill="#bee75e" d="M334.01 57.005c8.262 0 15-6.738 15-15 0-8.261-6.738-15-15-15s-15 6.739-15 15 6.738 15 15 15z" opacity="1" data-original="#bee75e"></path><path fill="#d98ff8" d="M48.488 214.943c8.262 0 15-6.738 15-15s-6.738-15-15-15-15 6.738-15 15 6.738 15 15 15z" opacity="1" data-original="#d98ff8"></path><path fill="#7dd5f4" d="M33.01 53.005c8.262 0 15-6.738 15-15s-6.739-15-15-15c-8.262 0-15 6.738-15 15 0 8.261 6.738 15 15 15z" opacity="1" data-original="#7dd5f4"></path><path fill="#ff8856" d="M365.01 371.004c8.262 0 15-6.738 15-15s-6.738-15-15-15-15 6.738-15 15 6.738 15 15 15z" opacity="1" data-original="#ff8856" class=""></path><path fill="#4793ff" d="M452.01 508.004c8.262 0 15-6.738 15-15s-6.738-15-15-15-15 6.738-15 15 6.738 15 15 15z" opacity="1" data-original="#4793ff"></path><path fill="#ff435b" d="M249.01 492.005c8.262 0 15-6.738 15-15s-6.739-15-15-15c-8.262 0-15 6.738-15 15 0 8.261 6.738 15 15 15z" opacity="1" data-original="#ff435b"></path></g><path fill="#d98ff8" d="M259.612 97.471c-.415 0-.831-.018-1.252-.052-8.256-.683-14.396-7.929-13.713-16.185 1.678-20.303-3.323-41.01-14.082-58.307-4.375-7.035-2.22-16.284 4.814-20.66 7.033-4.376 16.283-2.22 20.659 4.814 14.139 22.731 20.711 49.943 18.506 76.623-.647 7.837-7.208 13.767-14.932 13.767z" opacity="1" data-original="#d98ff8"></path><path fill="#ff435b" d="M379.858 218.509c-6.28 0-12.133-3.975-14.229-10.26-2.619-7.859 1.628-16.354 9.486-18.975 31.399-10.466 65.267-13.213 97.949-7.944 8.178 1.319 13.739 9.019 12.42 17.197s-9.017 13.745-17.197 12.42c-27.921-4.505-56.858-2.156-83.684 6.788a14.964 14.964 0 0 1-4.745.774z" opacity="1" data-original="#ff435b"></path><path fill="#7dd5f4" fill-rule="evenodd" d="M267.244 260.43c8.262 0 15-6.738 15-15 0-8.261-6.738-15-15-15s-15 6.738-15 15 6.738 15 15 15z" clip-rule="evenodd" opacity="1" data-original="#7dd5f4"></path><path fill="#00cb75" fill-rule="evenodd" d="M478.01 110.005c8.262 0 15-6.739 15-15s-6.738-15-15-15-15 6.739-15 15 6.738 15 15 15z" clip-rule="evenodd" opacity="1" data-original="#00cb75"></path><g fill="#ff435b"><path d="M347.718 164.807c13.979-2.982 28.31-7.608 39.398-18.696 11.087-11.088 15.713-25.419 18.695-39.397zM507.868 4.657 475.43 37.095c9.022-2.24 18.193-4.689 27.003-8.106 7.724-2.995 11.558-11.685 8.563-19.408a14.988 14.988 0 0 0-3.128-4.924z" fill="#ff435b" opacity="1" data-original="#ff435b"></path></g><path fill="#4793ff" fill-rule="evenodd" d="m277.764 234.761-21.189 21.189c2.723 2.761 6.5 4.48 10.669 4.48 8.262 0 15-6.739 15-15.001 0-4.168-1.719-7.945-4.48-10.668z" clip-rule="evenodd" opacity="1" data-original="#4793ff"></path><path fill="#525cdd" d="m184.179 328.346-21.21 21.21 53.846 53.846 10.603-10.604c5.858-5.857 5.858-15.355 0-21.213zM120.484 391.962l21.21-21.21 53.838 53.838-21.21 21.21zM78.058 434.38l21.21-21.21 53.838 53.838-21.21 21.21zM35.82 476.705l24.868 24.868c8.321 6.961 18.58 10.451 28.846 10.451a45.09 45.09 0 0 0 19.566-4.464l-52.067-52.067z" opacity="1" data-original="#525cdd"></path></g></svg>