<svg xmlns="http://www.w3.org/2000/svg" version="1.1" xmlns:xlink="http://www.w3.org/1999/xlink" width="512" height="512" x="0" y="0" viewBox="0 0 512 512" style="enable-background:new 0 0 512 512" xml:space="preserve" class=""><g><path fill="#463c4b" d="M176 112H80V96c0-8.837 7.163-16 16-16h64c8.837 0 16 7.163 16 16zM432 112h-96V96c0-8.837 7.163-16 16-16h64c8.837 0 16 7.163 16 16zM16 208v144.804C16 396.543 51.457 432 95.196 432a79.196 79.196 0 0 0 56-23.196l54.828-54.828A116 116 0 0 0 240 271.951V208zM496 208v144.804C496 396.543 460.543 432 416.804 432a79.196 79.196 0 0 1-56-23.196l-54.828-54.828A116 116 0 0 1 272 271.951V208z" opacity="1" data-original="#463c4b" class=""></path><path fill="#555a6e" d="M384 96c-26.16 0-50.223 8.97-69.286 24H197.286C178.223 104.97 154.16 96 128 96 66.144 96 16 146.144 16 208s50.144 112 112 112a111.87 111.87 0 0 0 35.103-5.619C170.711 336.277 191.513 352 216 352c15.674 0 29.835-6.447 40-16.824C266.165 345.553 280.326 352 296 352c24.487 0 45.289-15.723 52.897-37.619A111.87 111.87 0 0 0 384 320c61.856 0 112-50.144 112-112S445.856 96 384 96z" opacity="1" data-original="#555a6e" class=""></path><path fill="#463c4b" d="M282.667 176h-53.333c-13.255 0-24-10.745-24-24v-32h101.333v32c0 13.255-10.745 24-24 24z" opacity="1" data-original="#463c4b" class=""></path><circle cx="436" cy="208" r="28" fill="#ff6e91" opacity="1" data-original="#ff6e91" class=""></circle><circle cx="332" cy="208" r="28" fill="#ff6e91" opacity="1" data-original="#ff6e91" class=""></circle><circle cx="384" cy="156" r="28" fill="#00d2d2" opacity="1" data-original="#00d2d2"></circle><circle cx="384" cy="260" r="28" fill="#00d2d2" opacity="1" data-original="#00d2d2"></circle><circle cx="296" cy="296" r="29.333" fill="#463c4b" opacity="1" data-original="#463c4b" class=""></circle><circle cx="216" cy="296" r="29.333" fill="#463c4b" opacity="1" data-original="#463c4b" class=""></circle><path fill="#463c4b" d="m149.206 178.395-13.626 11.679a8 8 0 0 1-5.206 1.926h-4.748a7.998 7.998 0 0 1-5.206-1.926l-13.626-11.679a8.002 8.002 0 0 1-2.794-6.074V136a8 8 0 0 1 8-8h32a8 8 0 0 1 8 8v36.321a8.002 8.002 0 0 1-2.794 6.074zM149.206 237.605l-13.626-11.679a8 8 0 0 0-5.206-1.926h-4.748c-1.91 0-3.756.683-5.206 1.926l-13.626 11.679a8.002 8.002 0 0 0-2.794 6.074V280a8 8 0 0 0 8 8h32a8 8 0 0 0 8-8v-36.321a8.002 8.002 0 0 0-2.794-6.074zM98.395 186.794l11.679 13.626a8 8 0 0 1 1.926 5.206v4.748c0 1.91-.683 3.756-1.926 5.206l-11.679 13.626A8.002 8.002 0 0 1 92.321 232H56a8 8 0 0 1-8-8v-32a8 8 0 0 1 8-8h36.321a8.002 8.002 0 0 1 6.074 2.794zM157.605 186.794l-11.679 13.626a8 8 0 0 0-1.926 5.206v4.748c0 1.91.683 3.756 1.926 5.206l11.679 13.626a8.002 8.002 0 0 0 6.074 2.794H200a8 8 0 0 0 8-8v-32a8 8 0 0 0-8-8h-36.321a8.002 8.002 0 0 0-6.074 2.794z" opacity="1" data-original="#463c4b" class=""></path></g></svg>