<?xml version="1.0" encoding="UTF-8"?>
<svg id="Layer_1" xmlns="http://www.w3.org/2000/svg" viewBox="0 0 622.43 767.61">
  <defs>
    <style>
      .cls-1 {
        fill: #808083;
      }

      .cls-2, .cls-3 {
        fill: #5b5b5f;
      }

      .cls-4 {
        fill: #59595a;
      }

      .cls-5, .cls-3 {
        isolation: isolate;
        opacity: .3;
      }

      .cls-6 {
        fill: #5f95dd;
      }

      .cls-7 {
        fill: #abcb57;
      }
    </style>
  </defs>
  <g>
    <path class="cls-1" d="M155.8,759.61c-4.42,0-8-3.58-8-8v-36.6c0-4.42,3.58-8,8-8h71.21l31.21-112.71c.96-3.47,4.11-5.87,7.71-5.87h23.71c3.6,0,6.75,2.4,7.71,5.87l31.21,112.71h71.21c4.42,0,8,3.58,8,8v36.6c0,4.42-3.58,8-8,8h-243.97Z"/>
    <path d="M289.64,596.44l32.83,118.57h77.29v36.6h-243.97v-36.6h77.3l32.83-118.57h23.71M289.64,580.44h-23.71c-7.19,0-13.5,4.8-15.42,11.73l-29.59,106.84h-65.13c-8.84,0-16,7.16-16,16v36.6c0,8.84,7.16,16,16,16h243.97c8.84,0,16-7.16,16-16v-36.6c0-8.84-7.16-16-16-16h-65.12l-29.59-106.84c-1.92-6.93-8.23-11.73-15.42-11.73h0Z"/>
  </g>
  <g class="cls-5">
    <polygon class="cls-2" points="399.77 715.01 322.48 715.01 289.64 596.44 277.79 596.44 277.79 751.61 399.77 751.61 399.77 715.01"/>
  </g>
  <g>
    <path class="cls-6" d="M277.79,536.44c-69.09,0-134.04-26.9-182.89-75.76S19.14,346.88,19.14,277.79s26.9-134.04,75.76-182.89S208.7,19.14,277.79,19.14s134.04,26.9,182.89,75.76c48.85,48.85,75.76,113.81,75.76,182.89s-26.9,134.04-75.76,182.89c-48.85,48.85-113.81,75.76-182.89,75.76Z"/>
    <path d="M277.79,27.14c138.43,0,250.65,112.22,250.65,250.65s-112.22,250.65-250.65,250.65S27.14,416.22,27.14,277.79,139.36,27.14,277.79,27.14M277.79,11.14c-35.99,0-70.91,7.05-103.8,20.96-31.75,13.43-60.27,32.66-84.75,57.14-24.48,24.48-43.71,53-57.14,84.75-13.91,32.88-20.96,67.81-20.96,103.8s7.05,70.91,20.96,103.8c13.43,31.75,32.66,60.27,57.14,84.75,24.48,24.48,53,43.71,84.75,57.14,32.88,13.91,67.81,20.96,103.8,20.96s70.91-7.05,103.8-20.96c31.75-13.43,60.27-32.66,84.75-57.14,24.48-24.48,43.71-53,57.14-84.75,13.91-32.88,20.96-67.81,20.96-103.8s-7.05-70.91-20.96-103.8c-13.43-31.75-32.66-60.27-57.14-84.75-24.48-24.48-53-43.71-84.75-57.14-32.88-13.91-67.81-20.96-103.8-20.96h0Z"/>
  </g>
  <g>
    <path class="cls-7" d="M371.55,136.8c-2.07,0-4.12-.25-6.1-.74-9.81-2.44-16.16-10.6-20.36-16-2.81-3.61-8.04-10.32-6.72-18.64.77-4.89,3.53-8.46,5.54-11.07,5.13-6.65,12.94-14.3,20.48-21.7,7.16-7.02,14.56-14.28,19.02-20.06,1.56-2.02,3.92-3.11,6.33-3.11,1.21,0,2.43.27,3.57.85,25.3,12.65,48.25,29.29,68.21,49.44,1.88,1.9,2.69,4.62,2.15,7.25-3.81,18.45-13.9,29.04-27.7,29.04-.31,0-.63,0-.95-.02-5.95-.22-11.46-2.02-16.33-3.62-4.4-1.44-8.56-2.81-12.32-2.81-.4,0-.8.02-1.18.05-4.1.33-8.57,2.53-13.29,4.85-5.99,2.95-12.78,6.29-20.37,6.29,0,0,0,0,0,0Z"/>
    <path d="M389.75,53.49c24.62,12.31,46.93,28.55,66.11,47.91-2.37,11.48-8.35,22.65-19.86,22.65-.22,0-.44,0-.66-.01-9.91-.36-19.13-6.43-28.94-6.43-.6,0-1.21.02-1.82.07-11.63.93-21.93,11.12-33.02,11.12-1.37,0-2.76-.16-4.16-.51-6.83-1.7-11.66-7.6-15.98-13.15-2.85-3.66-5.86-7.9-5.13-12.48.44-2.8,2.24-5.18,3.97-7.43,9.59-12.42,29.91-29.33,39.5-41.75M389.75,37.49c-4.83,0-9.55,2.19-12.67,6.22-4.13,5.34-11.33,12.41-18.3,19.24-7.74,7.59-15.74,15.43-21.21,22.51-2.25,2.92-6.02,7.8-7.12,14.72-1.85,11.74,5.01,20.56,8.31,24.8,4.58,5.88,12.25,15.73,24.73,18.85,2.61.65,5.32.98,8.03.98,9.45,0,17.47-3.95,23.91-7.12,3.84-1.89,7.81-3.85,10.39-4.06.17-.01.35-.02.54-.02,2.48,0,6.05,1.17,9.83,2.41,5.37,1.76,11.45,3.75,18.53,4.01.42.02.83.02,1.24.02,17.67,0,30.96-13.24,35.53-35.42,1.08-5.25-.53-10.69-4.3-14.49-20.58-20.77-44.24-37.92-70.32-50.96-2.28-1.14-4.73-1.69-7.15-1.69h0Z"/>
  </g>
  <g>
    <path class="cls-7" d="M297.42,87.84c-3.98,0-7.78-.81-11.27-2.4-10.17-4.63-17.13-15.25-19.6-29.89-.81-4.77-2.89-9.4-5.1-14.3-1.6-3.56-3.26-7.25-4.58-11.28-.77-2.37-.4-4.96,1.01-7.01,1.41-2.05,3.69-3.33,6.18-3.46,4.61-.24,9.23-.36,13.72-.36,17.01,0,34.07,1.68,50.7,4.98,3.31.66,5.86,3.33,6.35,6.67,1.81,12.16-4.53,35.22-12.32,44.86-6.08,7.52-15.7,12.19-25.1,12.19h0Z"/>
    <path d="M277.79,27.13c16.82,0,33.25,1.67,49.14,4.83,1.47,9.89-4.34,30.88-10.63,38.66-4.54,5.62-11.78,9.22-18.88,9.22-2.73,0-5.43-.53-7.96-1.68-8.93-4.07-13.39-14.26-15.03-23.94-1.61-9.56-6.96-17.54-9.96-26.74,4.41-.23,8.84-.35,13.3-.35M277.79,11.13c-4.64,0-9.39.13-14.14.37-4.97.26-9.54,2.82-12.36,6.92-2.82,4.1-3.56,9.29-2.02,14.02,1.45,4.44,3.28,8.5,4.89,12.08,2.08,4.61,3.87,8.59,4.5,12.35,2.93,17.34,11.51,30.07,24.17,35.83,4.55,2.07,9.45,3.12,14.59,3.12,11.94,0,23.65-5.67,31.32-15.16,9.21-11.39,16.15-36.69,14.01-51.07-.99-6.68-6.08-12.02-12.71-13.34-17.15-3.41-34.73-5.14-52.26-5.14h0Z"/>
  </g>
  <g>
    <path class="cls-7" d="M211.36,469.03c-13.81,0-23.32-12.62-26.32-24.34-1.2-4.7-1.7-9.34-2.19-13.82-.56-5.16-1.08-10.04-2.63-14.32-2-5.53-5.89-10.64-10.01-16.05-5.5-7.21-11.18-14.68-13.48-24.39-1.71-7.23-1.16-14.2-.62-20.94.48-6.02.93-11.71-.42-16.63-1.91-6.96-7.51-12.83-13.43-19.04-5.26-5.51-10.69-11.21-14.48-18.44-5.53-10.55-4.92-20.42-4.38-29.12.36-5.74.66-10.7-.82-15.05-.73-2.15-3.82-4.36-6.8-6.49-14.85-10.63-28.69-22.68-41.2-35.86-7.87-8.29-15.64-17.58-19.14-29.36-.67-2.26-1.14-3.96-1.5-5.29-.3-1.1-.61-2.24-.77-2.63-.27-.35-1.14-1.25-1.98-2.12-.93-.96-2.1-2.17-3.6-3.79-2.27-2.44-2.79-6.04-1.3-9.02C80.03,94.83,141.18,45.52,214.07,27.06c.66-.17,1.32-.25,1.97-.25,3.56,0,6.8,2.39,7.74,5.99,4.69,17.99,11.26,34.67,17.6,50.2,4.7,11.53,10.56,25.88,9.03,40.91-2.78,27.3-20.57,28.78-32.34,29.76-6.19.52-12.04,1-16.51,4.14-1.46,1.02-2.91,2.16-4.45,3.36-4.63,3.62-9.88,7.72-16.61,9.6-2.85.8-5.89,1.19-9.31,1.19s-6.56-.37-9.67-.72c-2.4-.27-4.66-.53-6.82-.6-.13,0-.25,0-.39,0-6.71,0-19.86,3.77-23.57,8.79-.79,1.06-.92,1.84-.55,3.07.31,1.03,2.18,2.75,2.89,3.39,12.03,11.03,28.62,18.86,45.52,21.47,2.64.41,5.32.74,7.92,1.05,14.91,1.82,31.81,3.89,42.42,23.01,2.08,3.76,3.52,7.57,4.92,11.26,1.22,3.22,2.37,6.27,3.83,8.96,2.08,3.82,5.79,7.68,9.37,7.68.1,0,.19,0,.29,0,2.54-.15,5.4-2.17,8.71-4.5,2.78-1.97,5.94-4.2,9.63-5.73,3.6-1.5,7.5-2.26,11.59-2.26,10.29,0,19.52,4.71,25.44,8.66,10.77,7.18,18.19,16.21,21.46,26.12,4.32,13.08.82,27.28-8.7,35.33l-32,27.33c-7.54,6.44-14.92,13.37-15.1,21.1-.06,2.67.63,5.92,1.37,9.35,1.66,7.71,3.92,18.26-3.85,26.23-4.26,4.36-9.66,5.68-14,6.75-2.09.51-4.07,1-5.47,1.7-6.64,3.35-7.57,15.26-8.32,24.83-1.57,20.17-11.07,33.48-24.79,34.73-.66.06-1.32.09-1.98.09h0Z"/>
    <path d="M216.03,34.81c4.61,17.69,10.92,34.01,17.94,51.21,4.84,11.86,9.77,24.33,8.47,37.07-3.31,32.54-28.35,16.14-45.49,28.17-6.05,4.25-11.5,9.81-18.63,11.81-2.35.66-4.74.89-7.15.89-5.35,0-10.82-1.14-16.22-1.32-.21,0-.42-.01-.65-.01-10.09,0-36.43,6.94-31.76,22.19.85,2.79,2.98,4.98,5.13,6.95,13.41,12.3,31.71,20.7,49.71,23.48,17.83,2.76,34.35,1.63,44.57,20.04,3.56,6.41,5.21,13.73,8.72,20.17,3.39,6.22,9.39,11.85,16.39,11.85.25,0,.5,0,.75-.02,7.94-.46,13.61-7.78,20.95-10.84,2.74-1.14,5.61-1.65,8.52-1.65,7.29,0,14.79,3.17,21,7.32,8.08,5.38,15.26,12.74,18.3,21.97,3.04,9.22,1.15,20.45-6.27,26.72-10.67,9.12-21.35,18.24-32.03,27.36-8.47,7.24-17.64,15.86-17.9,26.99-.25,10.45,7.1,22.7-.21,30.18-4.39,4.5-11.73,4.06-17.35,6.9-10.56,5.33-11.77,19.55-12.69,31.34-.92,11.79-5.76,26.31-17.54,27.39-.42.04-.84.06-1.25.06-9.15,0-16.25-9.25-18.57-18.32-2.43-9.48-1.72-19.67-5.04-28.88-5.22-14.48-19.68-24.58-23.22-39.56-2.92-12.35,2.25-25.63-1.12-37.86-4.31-15.68-20.99-24.67-28.54-39.08-7.99-15.24-.15-29.67-4.71-43.04-1.57-4.6-5.84-7.63-9.79-10.46-14.39-10.3-27.8-21.98-39.99-34.81-7.26-7.64-14.27-16.02-17.28-26.13-3.59-12.08-1.08-7.77-9.65-16.99C85.64,101.49,144.74,52.87,216.03,34.81M216.04,18.81c-1.3,0-2.62.16-3.94.49-37.53,9.51-71.88,26.75-102.1,51.25-29.46,23.88-53.96,54.38-70.86,88.21-2.98,5.97-1.95,13.16,2.59,18.04,1.56,1.68,2.8,2.96,3.7,3.9.2.2.4.42.6.62.06.23.13.46.19.68.36,1.31.85,3.11,1.55,5.46,4,13.43,12.86,24.01,21.01,32.59,12.87,13.55,27.09,25.93,42.28,36.8l.07.05c1.33.95,3.26,2.33,4.07,3.16.76,2.83.51,6.82.23,11.38-.54,8.78-1.29,20.8,5.28,33.33,4.31,8.22,10.4,14.61,15.77,20.25,5.44,5.7,10.13,10.63,11.51,15.64.98,3.57.58,8.58.16,13.88-.56,7.01-1.19,14.96.81,23.42,2.69,11.36,9.18,19.88,14.9,27.39,3.74,4.9,7.27,9.54,8.85,13.91,1.22,3.38,1.7,7.79,2.2,12.47.49,4.54,1.05,9.69,2.39,14.95,3.74,14.62,16,30.35,34.07,30.35.9,0,1.81-.04,2.71-.12,17.86-1.63,30.14-17.76,32.03-42.08.39-4.94.82-10.54,2.08-14.67.67-2.2,1.42-3.41,1.87-3.63.59-.3,2.42-.75,3.77-1.07,4.76-1.17,11.96-2.93,17.82-8.93,10.77-11.03,7.75-25.09,5.95-33.49-.61-2.83-1.24-5.76-1.2-7.48.12-4.8,8.35-11.83,12.3-15.21l26.99-23.06,5.01-4.28c11.96-10.14,16.42-27.78,11.09-43.92-3.83-11.62-12.35-22.08-24.62-30.27-6.84-4.56-17.58-10-29.88-10-5.15,0-10.09.97-14.67,2.88-4.51,1.88-8.2,4.49-11.17,6.58-1.27.89-3.04,2.15-4.18,2.77-.67-.55-1.67-1.62-2.55-3.23-1.2-2.2-2.25-4.99-3.37-7.95-1.42-3.77-3.04-8.05-5.41-12.32-12.59-22.68-32.47-25.12-48.45-27.07-2.65-.32-5.16-.63-7.67-1.02-14.12-2.18-28.5-8.65-39.08-17.48,3.92-1.76,9.84-3.33,13.56-3.33h.12c1.84.06,3.95.3,6.18.56,3.17.36,6.77.77,10.57.77,4.16,0,7.91-.49,11.47-1.48,8.25-2.31,14.42-7.13,19.38-11,1.46-1.14,2.84-2.22,4.12-3.12,2.7-1.89,7.28-2.28,12.58-2.72,7.04-.59,15.8-1.32,23.68-6.48,9.26-6.06,14.48-16.02,15.95-30.45,1.73-17.01-4.54-32.39-9.58-44.74-6.24-15.29-12.7-31.68-17.27-49.2-1.87-7.2-8.36-11.97-15.47-11.97h0Z"/>
  </g>
  <g>
    <path class="cls-4" d="M277.76,614.27c-81.48,0-159.52-29.15-220.62-82.25l-13.21,13.21c-1.56,1.56-3.61,2.34-5.66,2.34s-4.09-.78-5.66-2.34l-22.27-22.27c-3.12-3.12-3.12-8.19,0-11.31l58.81-58.81c1.5-1.5,3.54-2.34,5.66-2.34s4.16.84,5.66,2.34l22.27,22.27c1.5,1.5,2.34,3.54,2.34,5.66s-.84,4.16-2.34,5.66l-11.93,11.93c52.07,44.2,118.13,68.44,186.96,68.44h.02c77.32,0,149.93-30.03,204.44-84.54,54.61-54.61,84.69-127.22,84.69-204.45,0-68.81-24.29-134.87-68.58-186.98l-11.93,11.93c-1.56,1.56-3.61,2.34-5.66,2.34s-4.09-.78-5.66-2.34l-22.27-22.27c-1.5-1.5-2.34-3.54-2.34-5.66s.84-4.16,2.34-5.66l58.81-58.81c1.56-1.56,3.61-2.34,5.66-2.34s4.09.78,5.66,2.34l22.27,22.27c1.5,1.5,2.34,3.54,2.34,5.66s-.84,4.16-2.34,5.66l-13.2,13.2c53.19,61.14,82.39,139.19,82.39,220.66,0,89.92-35.02,174.46-98.6,238.04-32.08,32.07-69.53,56.91-111.31,73.83-40.34,16.33-82.98,24.61-126.72,24.62h-.03Z"/>
    <path d="M517.3,16l22.27,22.27-18.54,18.54c55.17,60.6,85.38,138.47,85.39,220.98,0,87.78-34.18,170.31-96.26,232.38-64.06,64.06-148.24,96.09-232.38,96.1h-.03c-79.25,0-158.47-28.42-220.95-85.24l-18.54,18.54-22.27-22.27,58.81-58.81,22.27,22.27-17.97,17.97c56.32,50.7,127.49,76.05,198.68,76.05,76.08,0,152.18-28.97,210.1-86.89,56.12-56.12,87.03-130.74,87.03-210.11,0-74.1-26.95-144.05-76.19-198.68l-17.97,17.97-22.27-22.27,58.81-58.81M517.3,0c-4.1,0-8.19,1.56-11.31,4.69l-58.81,58.81c-3,3-4.69,7.07-4.69,11.31,0,4.24,1.69,8.31,4.69,11.31l22.27,22.27c3.12,3.12,7.22,4.69,11.31,4.69s8.19-1.56,11.31-4.69l5.7-5.7c39.55,49.56,61.15,111.11,61.15,175.09,0,75.09-29.24,145.69-82.34,198.79-53.01,53.01-123.61,82.2-198.79,82.2-64.01,0-125.55-21.55-175.09-61.02l5.69-5.69c6.25-6.25,6.25-16.38,0-22.63l-22.27-22.27c-3-3-7.07-4.69-11.31-4.69s-8.31,1.69-11.31,4.69l-58.81,58.81c-6.25,6.25-6.25,16.38,0,22.63l22.27,22.27c3.12,3.12,7.22,4.69,11.31,4.69s8.19-1.56,11.31-4.69l7.99-7.99c61.68,51.3,139.27,79.37,220.18,79.37,44.81,0,88.45-8.48,129.75-25.2,42.79-17.32,81.13-42.75,113.97-75.59,65.09-65.09,100.94-151.64,100.94-243.69,0-43.01-7.77-84.89-23.08-124.48-13.46-34.81-32.42-66.95-56.43-95.75l7.98-7.98c3-3,4.69-7.07,4.69-11.31,0-4.24-1.69-8.31-4.69-11.31l-22.27-22.27c-3.12-3.12-7.22-4.69-11.31-4.69h0Z"/>
  </g>
  <g>
    <path class="cls-7" d="M477.63,437.07c-13.73-.01-26.32-5.77-35.46-16.21-16.74-19.13-9.75-38.19-3.58-55.02,2.79-7.62,5.44-14.83,6.19-22.11,1.02-9.87-.14-16.93-3.54-21.57-4.04-5.54-11.65-8.34-19.69-11.31-2.08-.77-4.22-1.56-6.33-2.41-9.83-3.97-18.77-9.33-27.42-14.51-5.94-3.56-13.34-8-18.42-14.99-13.46-18.54,5.38-53.19,7.57-57.08,7.96-14.13,23.73-29.23,44.11-29.23,2.67,0,5.37.27,8.03.79,8.1,1.61,14.95,4.15,21.58,6.61,9.25,3.43,17.24,6.39,27.21,6.39,1.29,0,2.61-.05,3.92-.15,3.92-.3,7.64-.35,10.92-.39,12.99-.17,15.01-.87,16.63-5.81,1.08-3.29,4.15-5.51,7.6-5.51h.05c3.48.02,6.54,2.28,7.58,5.6,7.87,25.05,11.87,51.17,11.87,77.64,0,56.89-18.13,110.87-52.43,156.11-1.51,2-3.87,3.17-6.38,3.17h0Z"/>
    <path d="M421.05,200.62c2.12,0,4.28.21,6.47.64,18.59,3.7,31.28,13.15,50.35,13.15,1.47,0,2.98-.06,4.53-.18,16.89-1.3,29.91,2.44,34.54-11.69,7.47,23.75,11.5,49.03,11.5,75.24,0,56.83-18.93,109.23-50.8,151.28-11.53-.01-21.86-4.81-29.45-13.48-20.2-23.08,1.92-45.63,4.54-71.04.96-9.36.51-19.52-5.04-27.11-6.74-9.22-18.9-12.15-29.49-16.42-9.21-3.72-17.78-8.85-26.3-13.96-5.92-3.55-12.01-7.25-16.06-12.83-8.49-11.69,1.62-37.01,8.07-48.45,7.66-13.6,21.27-25.16,37.14-25.16M421.05,184.62v16s0-16,0-16c-10.79,0-21.51,3.64-31.02,10.52-7.97,5.77-14.9,13.64-20.05,22.79-1.79,3.17-7.89,14.59-11.23,28.16-3.88,15.77-2.48,28.4,4.16,37.54,6.04,8.32,14.21,13.22,20.78,17.15,8.92,5.35,18.14,10.87,28.54,15.07,2.22.89,4.42,1.71,6.55,2.5,6.88,2.54,13.38,4.94,16.01,8.53,1.48,2.02,3.03,6.44,2.04,16.04-.65,6.29-3.12,13.03-5.74,20.18-6.24,17.02-14.79,40.34,5.07,63.04,10.68,12.2,25.4,18.93,41.47,18.94h.02c5.01,0,9.72-2.34,12.75-6.33,17.19-22.68,30.56-47.77,39.74-74.58,9.5-27.74,14.31-56.8,14.31-86.37,0-27.29-4.12-54.22-12.24-80.04-2.08-6.63-8.21-11.16-15.17-11.2-.03,0-.07,0-.1,0-6.86,0-12.95,4.37-15.15,10.86-2.06.37-6.1.42-9.18.46-3.4.04-7.26.09-11.44.41-1.11.09-2.22.13-3.3.13-8.54,0-15.55-2.6-24.43-5.89-6.6-2.45-14.08-5.22-22.8-6.95-3.16-.63-6.39-.95-9.59-.95h0Z"/>
  </g>
  <path class="cls-3" d="M455.03,100.55L100.55,455.03c97.89,97.89,256.59,97.89,354.48,0,97.89-97.89,97.89-256.59,0-354.48Z"/>
</svg>