<?xml version="1.0" encoding="UTF-8"?>
<svg id="Layer_1" xmlns="http://www.w3.org/2000/svg" viewBox="0 0 511.98 512">
  <defs>
    <style>
      .cls-1, .cls-2, .cls-3, .cls-4, .cls-5, .cls-6, .cls-7 {
        fill-rule: evenodd;
      }

      .cls-1, .cls-8 {
        fill: #4793ff;
      }

      .cls-9 {
        fill: #00d2d2;
      }

      .cls-2, .cls-10 {
        fill: #ff8856;
      }

      .cls-3, .cls-11 {
        fill: #7dd5f4;
      }

      .cls-12 {
        fill: #fdbf00;
      }

      .cls-13 {
        fill: #00429d;
      }

      .cls-14 {
        fill: #525cdd;
      }

      .cls-15 {
        fill: #ff6e91;
      }

      .cls-16, .cls-6 {
        fill: #ff435b;
      }

      .cls-4 {
        fill: #00cb75;
      }

      .cls-5, .cls-17 {
        fill: #d98ff8;
      }

      .cls-18 {
        fill: #555a6e;
      }

      .cls-19 {
        fill: #463c4b;
      }

      .cls-20 {
        fill: #00347b;
      }

      .cls-21 {
        fill: #ca75f5;
      }

      .cls-7 {
        fill: #bee75e;
      }
    </style>
  </defs>
  <g>
    <path class="cls-13" d="M15,511.98c-3.98,0-7.8-1.58-10.61-4.39-5.86-5.86-5.86-15.35,0-21.21l27.27-27.27c5.86-5.86,15.35-5.86,21.21,0,5.86,5.86,5.86,15.35,0,21.21l-27.27,27.27c-2.81,2.82-6.63,4.4-10.61,4.39Z"/>
    <path class="cls-20" d="M4.66,507.83c2.78,2.66,6.49,4.15,10.34,4.15,3.84,0,7.68-1.46,10.61-4.39l27.27-27.27c5.77-5.77,5.84-15.07.24-20.94l-48.45,48.46Z"/>
    <path class="cls-11" d="M3.39,405.3c2.26-5.48,5.58-10.45,9.77-14.64l10.67-10.67,20.28-.66,1.02-20.64,21.11-21.11,15.91-2.17,5.11-18.85,21.62-21.62s25.7-16.21,31.56-10.35l86.97,86.97c5.86,5.86-10.6,31.82-10.6,31.82l-21.28,21.28-18.78,2.15-2.41,19.04-21.06,21.06-16.85.22-4.54,21.17-10.55,10.55c-3.84,3.85-8.36,6.97-13.32,9.2-5.86,2.63-111.34-86.45-104.63-102.75Z"/>
    <path class="cls-8" d="M184.16,328.33L49.8,462.69c26.61,24.41,55.24,46.7,58.22,45.36,4.96-2.23,9.47-5.35,13.32-9.2l10.55-10.55,4.54-21.17,16.85-.22,21.06-21.06,2.41-19.04,18.78-2.15,21.28-21.28s16.46-25.96,10.6-31.82l-43.24-43.24Z"/>
    <path class="cls-8" d="M66.14,337.61l21.21-21.21,108.17,108.17-21.21,21.21-108.17-108.17ZM140.43,284.6c-5.86-5.86-15.35-5.86-21.21,0l-10.6,10.6,108.18,108.18,10.6-10.6c5.86-5.86,5.86-15.35,0-21.21l-86.97-86.97ZM4.46,402.91c-7.52,15.6-5.52,34.66,5.99,48.41l50.22,50.22c8.32,6.96,18.58,10.45,28.84,10.45,6.77,0,13.46-1.52,19.57-4.46L4.46,402.91ZM23.72,380.03l21.21-21.21,108.17,108.17-21.21,21.21-108.17-108.17Z"/>
    <path class="cls-21" d="M496.98,345.75c-3.77,0-7.54-1.41-10.46-4.25-33.04-32.14-76.62-49.83-122.71-49.83-37.73,0-75.16,12.44-105.38,35.04-6.63,4.96-16.03,3.6-20.99-3.03-4.96-6.63-3.6-16.03,3.03-20.99,35.37-26.45,79.18-41.01,123.34-41.01,53.95,0,104.95,20.72,143.62,58.33,5.94,5.78,6.07,15.27.3,21.21-2.82,2.91-6.7,4.55-10.75,4.54h0Z"/>
    <path class="cls-12" d="M183.22,259.66c-3.2,0-6.31-1.02-8.88-2.92-6.67-4.91-8.1-14.3-3.18-20.97,12.17-16.52,18.6-36.1,18.6-56.62,0-40.94-26.05-77.28-64.82-90.43-7.84-2.66-12.05-11.18-9.39-19.02,2.66-7.85,11.18-12.05,19.02-9.39,50.95,17.28,85.18,65.04,85.18,118.84,0,26.96-8.45,52.69-24.44,74.41-2.83,3.85-7.32,6.11-12.09,6.11h0Z"/>
    <path class="cls-10" d="M289.66,184.17c-3.98,0-7.8-1.58-10.61-4.39-5.86-5.86-5.86-15.35,0-21.21,14.3-14.3,33.98-17.85,51.35-20.99,14.31-2.58,27.82-5.02,35.47-12.68,7.65-7.65,10.1-21.17,12.68-35.47,3.14-17.37,6.69-37.06,20.99-51.35,17.6-17.6,40.87-23.29,63.37-28.79,10.23-2.5,19.9-4.87,28.64-8.25,7.73-3,16.41.84,19.41,8.56,2.99,7.72-.84,16.41-8.56,19.41-10.56,4.09-21.64,6.8-32.36,9.42-19.35,4.73-37.62,9.2-49.29,20.86-7.65,7.66-10.1,21.17-12.68,35.47-3.14,17.37-6.69,37.06-20.99,51.35-14.3,14.3-33.98,17.85-51.35,20.99-14.31,2.58-27.82,5.02-35.47,12.68-2.81,2.82-6.63,4.4-10.61,4.39h0Z"/>
    <g>
      <path class="cls-7" d="M333.98,57c8.26,0,15-6.74,15-15s-6.74-15-15-15-15,6.74-15,15,6.74,15,15,15Z"/>
      <path class="cls-5" d="M48.48,214.93c8.26,0,15-6.74,15-15s-6.74-15-15-15-15,6.74-15,15,6.74,15,15,15Z"/>
      <path class="cls-3" d="M33,53c8.26,0,15-6.74,15-15s-6.74-15-15-15-15,6.74-15,15,6.74,15,15,15Z"/>
      <path class="cls-2" d="M364.98,370.99c8.26,0,15-6.74,15-15s-6.74-15-15-15-15,6.74-15,15,6.74,15,15,15Z"/>
      <path class="cls-1" d="M451.98,507.98c8.26,0,15-6.74,15-15s-6.74-15-15-15-15,6.74-15,15,6.74,15,15,15Z"/>
      <path class="cls-6" d="M248.99,491.98c8.26,0,15-6.74,15-15s-6.74-15-15-15-15,6.74-15,15,6.74,15,15,15h0Z"/>
    </g>
    <path class="cls-17" d="M259.59,97.47c-.41,0-.83-.02-1.25-.05-8.26-.68-14.4-7.93-13.71-16.18,1.68-20.3-3.32-41.01-14.08-58.3-4.37-7.03-2.22-16.28,4.81-20.66,7.03-4.38,16.28-2.22,20.66,4.81,14.14,22.73,20.71,49.94,18.51,76.62-.65,7.84-7.21,13.77-14.93,13.77Z"/>
    <path class="cls-16" d="M379.83,218.5c-6.28,0-12.13-3.97-14.23-10.26-2.62-7.86,1.63-16.35,9.49-18.97,31.4-10.47,65.26-13.21,97.94-7.94,8.18,1.32,13.74,9.02,12.42,17.2s-9.02,13.74-17.2,12.42c-27.92-4.5-56.86-2.16-83.68,6.79-1.53.51-3.13.77-4.74.77h0Z"/>
    <path class="cls-3" d="M267.22,260.42c8.26,0,15-6.74,15-15s-6.74-15-15-15-15,6.74-15,15,6.74,15,15,15Z"/>
    <path class="cls-4" d="M477.98,110c8.26,0,15-6.74,15-15s-6.74-15-15-15-15,6.74-15,15,6.74,15,15,15Z"/>
    <path class="cls-16" d="M347.69,164.8c13.98-2.98,28.31-7.61,39.4-18.7,11.09-11.09,15.71-25.42,18.69-39.4l-58.09,58.09ZM507.83,4.66l-32.44,32.44c9.02-2.24,18.19-4.69,27-8.11,7.72-2.99,11.56-11.68,8.56-19.41-.71-1.83-1.77-3.5-3.13-4.92h0Z"/>
    <path class="cls-1" d="M277.74,234.75l-21.19,21.19c2.72,2.76,6.5,4.48,10.67,4.48,8.26,0,15-6.74,15-15,0-4.17-1.72-7.94-4.48-10.67h0Z"/>
    <path class="cls-14" d="M184.16,328.33l-21.21,21.21,53.84,53.84,10.6-10.6c5.86-5.86,5.86-15.35,0-21.21l-43.24-43.24ZM120.47,391.94l21.21-21.21,53.84,53.84-21.21,21.21-53.84-53.84ZM78.04,434.36l21.21-21.21,53.84,53.84-21.21,21.21-53.84-53.84ZM35.81,476.68l24.87,24.87c8.32,6.96,18.58,10.45,28.84,10.45,6.77,0,13.46-1.52,19.57-4.46l-52.06-52.06-21.21,21.21Z"/>
  </g>
  <g>
    <path class="cls-19" d="M216.88,123.46l-84.42-17.99,3-14.07c1.66-7.77,9.3-12.73,17.07-11.07l56.28,12c7.77,1.66,12.73,9.3,11.07,17.07l-3,14.07ZM441.99,171.44l-84.42-17.99,3-14.07c1.66-7.77,9.3-12.73,17.07-11.07l56.28,12c7.77,1.66,12.73,9.3,11.07,17.07l-3,14.07ZM58.19,177.88l-27.14,127.34c-8.2,38.46,16.34,76.29,54.8,84.49,18.47,3.94,37.75.38,53.59-9.9l58.49-37.94c23.21-15.05,39.48-38.71,45.25-65.76l11.99-56.24-196.98-41.98ZM480.28,267.85l-27.14,127.34c-8.2,38.46-46.02,63-84.49,54.8-18.47-3.94-34.62-15.05-44.9-30.89l-37.94-58.49c-15.05-23.21-20.27-51.44-14.5-78.5l11.99-56.24,196.98,41.98Z"/>
    <path class="cls-18" d="M402.78,148.37c-23-4.9-45.85-1.53-65.43,8.12l-103.26-22.01c-13.95-16.79-33.43-29.19-56.43-34.09-54.39-11.59-107.89,23.1-119.48,77.5s23.1,107.89,77.5,119.48c10.49,2.24,21.26,2.8,31.92,1.64,2.59,20.68,17.93,38.41,39.46,43,13.78,2.94,27.44-.08,38.33-7.3,6.99,11.03,18.24,19.35,32.02,22.29,21.53,4.59,42.77-5.34,53.57-23.17,9.26,5.4,19.33,9.29,29.82,11.52,54.39,11.59,107.89-23.1,119.48-77.5s-23.1-107.89-77.5-119.48Z"/>
    <path class="cls-19" d="M298.68,199.73l-46.9-10c-11.66-2.48-19.09-13.95-16.61-25.6l6-28.14,89.11,18.99-6,28.14c-2.48,11.66-13.95,19.09-25.6,16.61Z"/>
    <circle class="cls-15" cx="427.52" cy="256.61" r="25.18"/>
    <circle class="cls-15" cx="336.06" cy="237.11" r="25.18"/>
    <circle class="cls-9" cx="391.54" cy="201.13" r="25.18"/>
    <circle class="cls-9" cx="372.04" cy="292.59" r="25.18"/>
    <circle class="cls-19" cx="287.91" cy="307.75" r="26.37"/>
    <circle class="cls-19" cx="217.56" cy="292.76" r="26.37"/>
    <path class="cls-19" d="M180.87,176.82l-14.17,7.72c-1.51.82-3.26,1.08-4.94.72l-4.18-.89c-1.68-.36-3.18-1.3-4.22-2.67l-9.79-12.82c-1.27-1.67-1.76-3.81-1.32-5.86l6.81-31.94c.83-3.89,4.65-6.36,8.53-5.54l28.14,6c3.89.83,6.36,4.65,5.54,8.53l-6.81,31.94c-.44,2.05-1.75,3.81-3.6,4.82ZM169.77,228.89l-9.79-12.82c-1.04-1.36-2.54-2.31-4.22-2.67l-4.18-.89c-1.68-.36-3.43-.1-4.94.72l-14.17,7.72c-1.84,1-3.16,2.76-3.6,4.82l-6.81,31.94c-.83,3.89,1.65,7.71,5.54,8.53l28.14,6c3.89.83,7.71-1.65,8.53-5.54l6.81-31.94c.44-2.05-.04-4.2-1.32-5.86ZM134.62,174.68l7.72,14.17c.82,1.51,1.08,3.26.72,4.94l-.89,4.18c-.36,1.68-1.3,3.17-2.67,4.22l-12.82,9.79c-1.67,1.27-3.81,1.76-5.86,1.32l-31.94-6.81c-3.89-.83-6.36-4.65-5.54-8.53l6-28.14c.83-3.89,4.65-6.36,8.53-5.54l31.94,6.81c2.05.44,3.81,1.75,4.82,3.6ZM186.68,185.78l-12.82,9.79c-1.36,1.04-2.31,2.54-2.67,4.22l-.89,4.18c-.36,1.68-.1,3.43.72,4.94l7.72,14.17c1,1.84,2.76,3.16,4.82,3.6l31.94,6.81c3.89.83,7.71-1.65,8.53-5.54l6-28.14c.83-3.89-1.65-7.71-5.54-8.53l-31.94-6.81c-2.05-.44-4.2.04-5.86,1.32h0Z"/>
  </g>
</svg>