<svg id="Capa_1" enable-background="new 0 0 512 512" height="512" viewBox="0 0 512 512" width="512" xmlns="http://www.w3.org/2000/svg"><path d="m451.648.356c-25.777 2.712-56.79 19.872-94.811 52.46-68.786 58.958-149.927 160.756-202.185 234-38.158-5.951-78.375 10.368-102.187 40.133-43.707 54.635-7.118 103.391-48.345 146.862-7.179 7.569-4.618 20.005 4.98 24.114 67.447 28.876 153.664 10.879 194.109-31.768 24.718-26.063 38.167-64.54 31.411-100.762 72.281-55.462 172.147-140.956 228.7-211.885 31.316-39.277 47.208-70.872 48.584-96.59 1.855-34.647-25.034-60.266-60.256-56.564zm-270.205 445.155c-27.362 28.85-87.899 45.654-141.767 31.287 30.12-48.043 4.229-91.124 36.214-131.106 26.246-32.808 79.034-41.993 109.709-11.317 35.839 35.843 19.145 86.566-4.156 111.136zm3.07-148.841c7.354-10.167 18.887-25.865 33.29-44.659l49.22 49.224c-18.125 14.906-33.263 26.86-43.077 34.494-8.842-15.879-22.526-30.108-39.433-39.059zm297.435-241.354c-3.368 63.004-143.842 186.021-191.797 226.621l-53.785-53.79c39.458-49.96 155.261-191.312 218.422-197.954 16.851-1.775 28.03 8.858 27.16 25.123z"/></svg>